<svg xmlns="http://www.w3.org/2000/svg" width="250" height="250" viewBox="0 0 250 250" fill="none">
<path d="M 124.78,111.09 C 58.06,111.09 3.79,142.13 3.79,175.72 C 3.79,205.24 42.99,239.91 124.78,239.91 C 194.73,239.91 246.81,207.21 246.81,175.72 C 246.81,146.17 211.04,111.09 124.78,111.09 Z" fill="url(#paint0_linear_213_1002)"/>
<path d="M 223.41,137.19 C 216.69,146.94 206.9,153.38 206.9,153.38 L 196.88,146.85 L 180.57,154.81 L 172.01,159.56 C 162.13,165.59 154.28,173.82 149.38,186.36 L 145.45,187.89 L 144.06,204.71 L 145.92,217.03 C 146.47,223.09 149.46,232.34 152.62,238.44 C 184.12,234.52 209.92,222.97 225.82,209.25 C 232.08,203.89 235.93,199.01 236.66,197.34 C 243.83,180.96 236.02,158.23 223.41,137.19 Z" fill="url(#paint1_linear_213_1002)"/>
<path d="M 206.9,153.38 C 203.89,162.11 197.19,166.12 192.62,169.72 C 184.72,176.03 179.01,183.91 179.57,194.14 C 192.71,201.21 204.87,209.29 212.99,218.99 C 221.79,213.48 229.79,206.05 235.31,199.41 C 239.74,180.41 226.01,163.61 206.9,153.38 Z" fill="url(#paint2_linear_213_1002)"/>
<path d="M 13.91,200.22 C 20.63,208.92 30.25,216.43 36.44,220.02 C 49.96,201.01 71.17,191.21 88.41,188.16 L 128.71,131.6 C 66.18,130.51 10.81,157.21 13.91,200.22 Z" fill="url(#paint3_linear_213_1002)"/>
<path d="M 86.13,190.11 C 89.16,191.23 93.84,190.11 96.21,184.28 C 99.31,176.56 99.18,166.88 104.45,145.12 C 106.41,147.92 110.19,149.19 115.22,145.96 C 121.12,142.27 129.71,126.01 132.76,125.73 C 133.88,129.78 138.19,129.78 143.46,127.26 C 147.77,125.21 155.25,116.97 158.04,116.41 C 158.88,119.46 162.66,118.9 166.71,118.06 C 172.53,116.73 182.76,110.33 184.48,107.28 C 185.04,109.81 185.04,111.77 187.84,112.05 C 195.83,112.89 202.77,100.21 205.82,92.77 C 207.51,94.16 208.64,95.85 210.32,94.45 C 214.09,91.4 215.21,77.07 212.16,69.07 C 206.66,54.46 194.54,44.23 181.89,36.23 C 172.97,30.4 161.31,23.22 150.52,22.66 C 146.33,22.42 132.2,21.26 126.42,21.26 C 138.24,12.81 154.06,9.62 163.18,9.56 C 187.56,8.96 209.01,16.28 214.71,45.04 C 215.41,48.56 215.13,50.11 216.25,51.23 C 228.9,63.87 236.06,78.16 234.62,93.61 C 232.66,116.17 216.39,134.88 196.52,147.26 C 181.71,156.46 164.19,163.1 152.91,178.21 C 140.79,195.59 141.63,216.23 151.86,238.79 C 141.92,239.82 135.79,239.91 126.42,239.91 C 113.51,239.91 100.61,238.66 90.1,236.91 C 87.01,236.41 86.13,236.84 86.13,233.79 C 86.13,224.32 85.29,220.02 86.41,208.32 C 84.45,201.69 82.49,190.18 82.17,189.31 C 82.73,189.03 84.45,189.31 86.13,190.11 Z" fill="url(#paint4_linear_213_1002)"/>
<path d="M 128.38,20.98 C 136.93,16.11 159.75,9.22 176.29,12.27 C 187.22,14.23 199.61,17.28 207.32,28.21 C 212.31,35.09 214.84,43.67 215.41,50.55 C 206.31,37.91 192.84,32.64 188.52,31.24 C 179.15,27.77 172.25,23.22 159.03,21.26 C 151.59,20.14 139.2,20.14 128.38,20.98 Z" fill="url(#paint5_linear_213_1002)"/>
<path d="M 126.7,20.98 C 136.61,19.86 150.43,18.74 161.26,20.14 C 172.97,21.82 183.75,25.87 189.57,29.33 C 187.88,25.27 187.04,22.18 186.76,15.29 C 198.47,18.1 206.46,25.83 210.78,34.93 C 214.25,42.09 215.65,47.64 215.93,51.11 C 204.77,39.13 187.88,31.24 174.66,26.67 C 166.67,23.86 160.27,21.26 153.09,21.26 C 146.73,20.98 137.37,20.14 126.7,20.98 Z" fill="url(#paint6_linear_213_1002)"/>
<path d="M 126.7,21.26 C 134.44,21.54 145.41,28.21 151.27,36.23 C 157.13,44.25 164.57,47.04 173.69,47.92 C 170.07,50.19 165.71,50.79 160.27,50.11 C 167.45,58.39 175.41,62.74 189.17,62.18 C 196.6,61.9 201.12,60.5 206.06,58.82 C 196.96,47.32 185.32,36.23 163.22,25.27 C 156.32,22.42 153.84,20.7 144.48,20.7 C 138.92,20.7 133.32,20.42 126.7,21.26 Z" fill="url(#paint7_linear_213_1002)"/>
<path d="M 215.69,50.27 C 224.79,59.65 234.15,73.12 234.15,86.63 C 234.15,101.25 227.87,117.22 213.81,131.01 C 201.16,143.39 180.77,152.76 166.11,163.06 C 153.76,171.88 144.64,183.14 144.08,204.35 C 143.52,215.28 145.2,224.92 151.86,238.44 C 143.82,239.62 137.53,239.71 129.47,239.71 C 126.7,221.75 127.54,199.19 137.33,184.03 C 147.13,168.28 161.63,159.12 175.77,149.71 C 189.91,140.31 204.73,133.13 213.81,120.75 C 223.61,107.76 228.98,94.77 223.16,80.72 C 226.17,77.67 224.77,72.4 222.25,66.02 C 220.56,61.18 217.65,54.86 215.69,50.27 Z" fill="url(#paint8_linear_213_1002)"/>
<path d="M 221.97,116.69 L 226.17,118.38 C 227.34,116.13 229.22,112.81 231.5,105.01 L 228.98,103.93 C 227.58,108.77 225.31,112.53 221.97,116.69 Z" fill="url(#paint9_linear_213_1002)"/>
<path d="M 210.78,128.35 L 215.93,130.03 C 217.21,128.79 218.97,126.86 220.25,125.17 L 215.69,123.77 C 214.29,125.73 212.89,126.98 210.78,128.35 Z" fill="url(#paint10_linear_213_1002)"/>
<path d="M 198.91,137.91 L 201.44,141.95 C 203.12,140.83 205.92,138.55 207.04,137.43 L 203.56,134.62 C 201.88,136.02 200.76,137.15 198.91,137.91 Z" fill="url(#paint11_linear_213_1002)"/>
<path d="M 184.48,147.06 L 186.76,151.07 L 190.79,148.55 L 187.88,144.82 L 184.48,147.06 Z" fill="url(#paint12_linear_213_1002)"/>
<path d="M 167.81,157.29 L 170.89,161.02 L 173.13,158.96 L 169.67,154.69 L 167.81,157.29 Z" fill="url(#paint13_linear_213_1002)"/>
<path d="M 150.16,169.06 L 154.97,172.83 L 157.21,170.02 L 152.69,166.26 L 150.16,169.06 Z" fill="url(#paint14_linear_213_1002)"/>
<path d="M 137.73,184.76 L 140.83,188.22 L 146.93,189.62 L 148.01,186.16 L 143.46,185.6 L 139.16,182.51 L 137.73,184.76 Z" fill="url(#paint15_linear_213_1002)"/>
<path d="M 128.91,204.31 L 130.03,208.6 C 134.32,209.44 138.88,209.44 143.72,207.76 V 203.75 C 138.88,205.43 134.88,205.71 128.91,204.31 Z" fill="url(#paint16_linear_213_1002)"/>
<path d="M 127.54,225.24 L 128.62,229.25 C 136.06,230.09 142.72,227.53 146.77,221.11 L 145.65,216.55 C 142.48,223.43 136.61,226.08 127.54,225.24 Z" fill="url(#paint17_linear_213_1002)"/>
<path d="M 82.41,189.59 C 85.17,199.78 90.99,209.72 98.66,216.31 L 99.5,233.79 C 94.36,224.68 87.25,212.08 86.13,204.63 C 85.29,199.45 83.85,194.46 82.41,189.59 Z" fill="url(#paint18_linear_213_1002)"/>
<path d="M 130.91,125.73 C 123.16,136.66 118.85,151.56 117.73,161.6 L 125.17,154.12 C 126.01,145.02 127.98,135.66 133.24,126.58 C 132.68,125.73 132.12,125.17 130.91,125.73 Z" fill="url(#paint19_linear_213_1002)"/>
<path d="M 157.76,116.65 C 151.07,123.53 145.81,133.57 143.28,141.87 L 150.72,137.03 C 152.69,129.03 156.12,122.42 159.23,117.21 C 158.92,116.53 158.64,116.37 157.76,116.65 Z" fill="url(#paint20_linear_213_1002)"/>
<path d="M 183.92,108.08 C 178.83,116.37 174.86,122.11 169.63,128.23 L 177.92,124.53 C 180.97,119.62 183.63,113.61 184.76,107.48 C 184.76,106.92 184.48,107.24 183.92,108.08 Z" fill="url(#paint21_linear_213_1002)"/>
<path d="M 205.82,93.61 C 203.29,102.15 200.76,110.13 196.72,117.01 L 201.84,113.57 C 204.68,107.16 206.1,100.29 206.66,93.41 C 206.38,92.85 206.1,92.81 205.82,93.61 Z" fill="url(#paint22_linear_213_1002)"/>
<path d="M 128.91,202.63 C 130.63,188.02 138.07,174.26 151.27,163.69 L 163.1,150.23 L 158.28,144.11 L 141.43,154.97 L 128.1,165.27 L 122.28,172.71 L 120.01,200.73 L 121.12,218.95 L 127.54,217.03 L 128.91,202.63 Z" fill="url(#paint23_linear_213_1002)"/>
<path d="M 105.29,146.22 C 102.77,158.08 102.49,171.84 105.29,182.63 L 107.52,177.11 C 105.29,168.58 105.01,158.04 106.41,146.82 C 106.13,146.26 105.85,145.7 105.29,146.22 Z" fill="url(#paint24_linear_213_1002)"/>
<path d="M 100.14,214.19 L 101.82,193.26 L 106.96,177.11 C 111.52,167.74 117.62,159.16 128.71,150.23 C 133.24,146.5 138.43,145.1 140.07,146.5 C 143.28,149.31 142.68,156.61 140.63,166.02 L 132.64,176.56 L 126.78,175.16 L 125.38,189.47 L 120.53,202.71 L 119.13,219.03 L 114.83,220.71 C 111.68,214.59 106.25,209.64 100.14,206.29 V 214.19 Z" fill="url(#paint25_linear_213_1002)"/>
<path d="M 116.61,164.41 L 121.72,167.18 L 126.26,171.75 V 167.18 L 124.53,155.16 L 127.62,150.03 C 131.31,146.86 135.27,145.1 138.72,145.66 C 142.76,146.5 142.76,153.38 141.63,161.06 L 138.57,168.22 L 132.16,176.79 L 126.62,175.4 C 126.62,170.26 123.72,166.26 116.61,164.41 Z" fill="url(#paint26_linear_213_1002)"/>
<path d="M 146.73,147.62 L 155.85,144.82 L 158.91,149.63 L 163.74,149.07 L 175.77,142.43 L 180.33,134.13 L 179.77,130.11 L 169.23,130.67 L 157.21,137.27 L 146.73,147.62 Z" fill="url(#paint27_linear_213_1002)"/>
<defs>
<linearGradient id="paint0_linear_213_1002" x1="125.297" y1="111.086" x2="125.297" y2="239.906" gradientUnits="userSpaceOnUse">
<stop stop-color="#B97A00"/>
<stop offset="1" stop-color="#380F01"/>
</linearGradient>
<linearGradient id="paint1_linear_213_1002" x1="195.312" y1="137.188" x2="195.312" y2="238.789" gradientUnits="userSpaceOnUse">
<stop stop-color="#6E3700"/>
<stop offset="1" stop-color="#380F01"/>
</linearGradient>
<linearGradient id="paint2_linear_213_1002" x1="206.902" y1="153.379" x2="206.902" y2="218.986" gradientUnits="userSpaceOnUse">
<stop stop-color="#602300"/>
<stop offset="1" stop-color="#380F01"/>
</linearGradient>
<linearGradient id="paint3_linear_213_1002" x1="71.3071" y1="131.563" x2="71.3071" y2="220.02" gradientUnits="userSpaceOnUse">
<stop stop-color="#602300"/>
<stop offset="1" stop-color="#380F01"/>
</linearGradient>
<linearGradient id="paint4_linear_213_1002" x1="158.501" y1="9.49023" x2="158.501" y2="239.906" gradientUnits="userSpaceOnUse">
<stop stop-color="#A2B571"/>
<stop offset="0.510417" stop-color="#469188"/>
<stop offset="1" stop-color="#994522"/>
</linearGradient>
<linearGradient id="paint5_linear_213_1002" x1="171.053" y1="9.375" x2="171.053" y2="51.1133" gradientUnits="userSpaceOnUse">
<stop stop-color="#A2B571"/>
<stop offset="1" stop-color="#748A4A"/>
</linearGradient>
<linearGradient id="paint6_linear_213_1002" x1="171.053" y1="15.293" x2="171.053" y2="51.1133" gradientUnits="userSpaceOnUse">
<stop stop-color="#469188"/>
<stop offset="1" stop-color="#417267"/>
</linearGradient>
<linearGradient id="paint7_linear_213_1002" x1="170.731" y1="20.1406" x2="170.731" y2="62.2617" gradientUnits="userSpaceOnUse">
<stop stop-color="#A3481C"/>
<stop offset="1" stop-color="#8F6829"/>
</linearGradient>
<linearGradient id="paint8_linear_213_1002" x1="180.924" y1="50.2656" x2="180.924" y2="239.707" gradientUnits="userSpaceOnUse">
<stop stop-color="#469188"/>
<stop offset="1" stop-color="#994522"/>
</linearGradient>
<linearGradient id="paint9_linear_213_1002" x1="226.737" y1="103.93" x2="226.737" y2="118.379" gradientUnits="userSpaceOnUse">
<stop stop-color="#A3481C"/>
<stop offset="1" stop-color="#8F6829"/>
</linearGradient>
<linearGradient id="paint10_linear_213_1002" x1="215.513" y1="123.77" x2="215.513" y2="131.008" gradientUnits="userSpaceOnUse">
<stop stop-color="#A3481C"/>
<stop offset="1" stop-color="#8F6829"/>
</linearGradient>
<linearGradient id="paint11_linear_213_1002" x1="203.073" y1="134.621" x2="203.073" y2="141.953" gradientUnits="userSpaceOnUse">
<stop stop-color="#A3481C"/>
<stop offset="1" stop-color="#8F6829"/>
</linearGradient>
<linearGradient id="paint12_linear_213_1002" x1="188.708" y1="144.82" x2="188.708" y2="151.07" gradientUnits="userSpaceOnUse">
<stop stop-color="#A3481C"/>
<stop offset="1" stop-color="#8F6829"/>
</linearGradient>
<linearGradient id="paint13_linear_213_1002" x1="170.469" y1="154.688" x2="170.469" y2="161.021" gradientUnits="userSpaceOnUse">
<stop stop-color="#A3481C"/>
<stop offset="1" stop-color="#8F6829"/>
</linearGradient>
<linearGradient id="paint14_linear_213_1002" x1="153.687" y1="166.258" x2="153.687" y2="172.828" gradientUnits="userSpaceOnUse">
<stop stop-color="#A3481C"/>
<stop offset="1" stop-color="#8F6829"/>
</linearGradient>
<linearGradient id="paint15_linear_213_1002" x1="142.871" y1="182.508" x2="142.871" y2="189.617" gradientUnits="userSpaceOnUse">
<stop stop-color="#A3481C"/>
<stop offset="1" stop-color="#8F6829"/>
</linearGradient>
<linearGradient id="paint16_linear_213_1002" x1="136.316" y1="203.75" x2="136.316" y2="209.281" gradientUnits="userSpaceOnUse">
<stop stop-color="#A3481C"/>
<stop offset="1" stop-color="#8F6829"/>
</linearGradient>
<linearGradient id="paint17_linear_213_1002" x1="137.153" y1="216.551" x2="137.153" y2="230.066" gradientUnits="userSpaceOnUse">
<stop stop-color="#A3481C"/>
<stop offset="1" stop-color="#8F6829"/>
</linearGradient>
<linearGradient id="paint18_linear_213_1002" x1="90.9531" y1="189.027" x2="90.9531" y2="233.789" gradientUnits="userSpaceOnUse">
<stop stop-color="#469188"/>
<stop offset="1" stop-color="#748A4A"/>
</linearGradient>
<linearGradient id="paint19_linear_213_1002" x1="125.484" y1="125.473" x2="125.484" y2="161.596" gradientUnits="userSpaceOnUse">
<stop stop-color="#469188"/>
<stop offset="1" stop-color="#396B5A"/>
</linearGradient>
<linearGradient id="paint20_linear_213_1002" x1="151.254" y1="116.414" x2="151.254" y2="138.229" gradientUnits="userSpaceOnUse">
<stop stop-color="#469188"/>
<stop offset="1" stop-color="#396B5A"/>
</linearGradient>
<linearGradient id="paint21_linear_213_1002" x1="177.195" y1="107.004" x2="177.195" y2="128.229" gradientUnits="userSpaceOnUse">
<stop stop-color="#469188"/>
<stop offset="1" stop-color="#396B5A"/>
</linearGradient>
<linearGradient id="paint22_linear_213_1002" x1="201.689" y1="92.7695" x2="201.689" y2="117.006" gradientUnits="userSpaceOnUse">
<stop stop-color="#469188"/>
<stop offset="1" stop-color="#396B5A"/>
</linearGradient>
<linearGradient id="paint23_linear_213_1002" x1="135.023" y1="137.266" x2="135.023" y2="239.707" gradientUnits="userSpaceOnUse">
<stop stop-color="#A2B571"/>
<stop offset="1" stop-color="#5B4A1D"/>
</linearGradient>
<linearGradient id="paint24_linear_213_1002" x1="104.711" y1="145.902" x2="104.711" y2="182.633" gradientUnits="userSpaceOnUse">
<stop stop-color="#469188"/>
<stop offset="1" stop-color="#396B5A"/>
</linearGradient>
<linearGradient id="paint25_linear_213_1002" x1="124.734" y1="145.504" x2="124.734" y2="219.027" gradientUnits="userSpaceOnUse">
<stop stop-color="#88AA64"/>
<stop offset="1" stop-color="#88753A"/>
</linearGradient>
<linearGradient id="paint26_linear_213_1002" x1="129.523" y1="145.504" x2="129.523" y2="176.793" gradientUnits="userSpaceOnUse">
<stop stop-color="#88AA64"/>
<stop offset="1" stop-color="#889364"/>
</linearGradient>
<linearGradient id="paint27_linear_213_1002" x1="163.531" y1="130.113" x2="163.531" y2="149.629" gradientUnits="userSpaceOnUse">
<stop stop-color="#B4C48D"/>
<stop offset="1" stop-color="#889364"/>
</linearGradient>
</defs>
</svg>